<?xml version="1.0" encoding="UTF-8"?><svg id="_レイヤー_2" xmlns="http://www.w3.org/2000/svg" viewBox="0 0 64 64"><defs><style>.cls-1{fill:#fff;}</style></defs><g id="_レイヤー_1-2"><rect width="64" height="64" rx="10.12" ry="10.12"/><g><path class="cls-1" d="M8.21,42.34c-.22,0-.33-.11-.33-.33V23.74c0-.22,.11-.33,.33-.33h5.72c2.51,0,4.39,.58,5.63,1.73,1.25,1.15,1.87,2.78,1.87,4.87s-.62,3.74-1.87,4.89c-1.25,1.15-3.12,1.73-5.63,1.73h-2.57v5.38c0,.22-.11,.33-.33,.33h-2.81Zm5.6-8.96c1.29,0,2.28-.27,2.98-.82,.7-.55,1.05-1.43,1.05-2.63,0-1.13-.35-1.96-1.05-2.5-.7-.54-1.69-.81-2.98-.81h-2.45v6.77h2.45Z"/><path class="cls-1" d="M24.98,42.34c-.22,0-.33-.11-.33-.33V23.74c0-.22,.11-.33,.33-.33h6.29c1.57,0,2.95,.21,4.14,.64s2.19,1.05,3,1.86c.81,.81,1.42,1.8,1.82,2.98,.4,1.17,.61,2.51,.61,4s-.2,2.8-.61,3.98c-.41,1.18-1.01,2.17-1.82,2.98-.81,.81-1.81,1.43-3,1.86s-2.57,.64-4.14,.64h-6.29Zm5.91-3.29c2.11,0,3.7-.53,4.75-1.6,1.05-1.06,1.58-2.59,1.58-4.57s-.53-3.53-1.58-4.6c-1.06-1.06-2.64-1.6-4.75-1.6h-2.76v12.36h2.76Z"/><path class="cls-1" d="M44.68,42.34c-.22,0-.33-.11-.33-.33V23.74c0-.22,.11-.33,.33-.33h11.53c.22,0,.33,.11,.33,.33v2.62c0,.22-.11,.33-.33,.33h-8.38v4.88h7.22c.22,0,.33,.11,.33,.33v2.62c0,.22-.11,.33-.33,.33h-7.22v7.15c0,.22-.11,.33-.33,.33h-2.81Z"/></g></g></svg>